<svg width="14" height="14" viewBox="0 0 14 14" fill="none" xmlns="http://www.w3.org/2000/svg">
<g clip-path="url(#clip0_1_254)">
<path d="M3.17059 1.49635C3.17059 2.32318 2.56035 2.99271 1.55565 2.99271C0.610235 2.99353 0 2.324 0 1.49635C0 0.649765 0.63 0 1.59518 0C2.55953 0 3.15082 0.649765 3.17059 1.49635ZM0.0790588 13.804V4.17447H3.07176V13.8032H0.0790588V13.804Z" fill="black"/>
<path d="M4.86296 7.24685C4.86296 6.04532 4.82426 5.04144 4.78473 4.17508H7.38379L7.52214 5.51414H7.58061C7.97426 4.88332 8.93943 3.9585 10.5536 3.9585C12.5226 3.95767 14 5.27697 14 8.1132V13.8038H11.0065V8.46732C11.0065 7.22708 10.5741 6.3805 9.49038 6.3805C8.66273 6.3805 8.17108 6.9512 7.95532 7.50297C7.87543 7.69979 7.85649 7.97567 7.85649 8.25073V13.8038H4.86296V7.24685Z" fill="black"/>
</g>
<defs>
<clipPath id="clip0_1_254">
<rect width="14" height="14" fill="white"/>
</clipPath>
</defs>
</svg>
