<svg width="14" height="14" viewBox="0 0 14 14" fill="none" xmlns="http://www.w3.org/2000/svg">
<g clip-path="url(#clip0_1_260)">
<path d="M14 2.902C13.4843 3.12989 12.9313 3.28466 12.3503 3.35389C12.943 2.99844 13.3988 2.43533 13.6127 1.76566C13.0589 2.09466 12.4437 2.33344 11.7896 2.46178C11.2653 1.90411 10.5179 1.55566 9.69268 1.55566C8.10679 1.55566 6.82035 2.84055 6.82035 4.42722C6.82035 4.652 6.84524 4.87133 6.89502 5.08211C4.50724 4.96155 2.3909 3.81822 0.974571 2.08144C0.727238 2.50533 0.585682 2.99922 0.585682 3.52422C0.585682 4.52133 1.09279 5.40022 1.86357 5.91511C1.39302 5.90033 0.949682 5.77122 0.562349 5.55655C0.562349 5.56822 0.562349 5.57989 0.562349 5.59233C0.562349 6.98378 1.55246 8.14578 2.86613 8.40866C2.62502 8.474 2.37146 8.509 2.10935 8.509C1.92502 8.509 1.74457 8.49266 1.56957 8.45844C1.93435 9.60022 2.99602 10.4301 4.25213 10.4534C3.26979 11.2234 2.03157 11.6823 0.686016 11.6823C0.45346 11.6823 0.225571 11.6683 0.000793457 11.6411C1.27168 12.457 2.78135 12.9314 4.40379 12.9314C9.68646 12.9314 12.5759 8.55489 12.5759 4.76011C12.5759 4.63489 12.5728 4.51044 12.5666 4.38755C13.1273 3.98466 13.615 3.47833 14 2.902Z" fill="black"/>
</g>
<defs>
<clipPath id="clip0_1_260">
<rect width="14" height="14" fill="white"/>
</clipPath>
</defs>
</svg>
