<svg width="29" height="15" viewBox="0 0 29 15" fill="none" xmlns="http://www.w3.org/2000/svg">
<rect y="0.046875" width="29" height="14" fill="#F5F5F5"/>
<g clip-path="url(#clip0_1_135)">
<path d="M11.1706 1.54323C11.1706 2.37005 10.5604 3.03958 9.55565 3.03958C8.61024 3.0404 8 2.37087 8 1.54323C8 0.69664 8.63 0.046875 9.59518 0.046875C10.5595 0.046875 11.1508 0.69664 11.1706 1.54323ZM8.07906 13.8509V4.22134H11.0718V13.85H8.07906V13.8509Z" fill="black"/>
<path d="M12.8629 7.29397C12.8629 6.09244 12.8242 5.08856 12.7847 4.2222H15.3838L15.5221 5.56126H15.5806C15.9742 4.93044 16.9394 4.00562 18.5535 4.00562C20.5226 4.00479 22 5.32409 22 8.16032V13.8509H19.0065V8.51444C19.0065 7.2742 18.5741 6.42762 17.4903 6.42762C16.6627 6.42762 16.1711 6.99832 15.9553 7.55009C15.8754 7.74691 15.8565 8.02279 15.8565 8.29785V13.8509H12.8629V7.29397Z" fill="black"/>
</g>
<defs>
<clipPath id="clip0_1_135">
<rect width="14" height="14" fill="white" transform="translate(8 0.046875)"/>
</clipPath>
</defs>
</svg>
