<svg width="29" height="15" viewBox="0 0 29 15" fill="none" xmlns="http://www.w3.org/2000/svg">
<rect y="0.046875" width="29" height="14" fill="#F5F5F5"/>
<g clip-path="url(#clip0_1_141)">
<path d="M14.6311 10.3031L12.4075 8.22695C12.2321 8.06307 11.948 8.06307 11.7726 8.22695L8 11.7418V12.2202C8 12.6666 8.39118 13.0298 8.86882 13.0298H21.0282C21.5059 13.0298 21.8971 12.6666 21.8971 12.2202V11.7418L18.1245 8.2253C17.9482 8.06307 17.6633 8.06307 17.4895 8.2253L15.266 10.3014C15.0906 10.4661 14.8065 10.4661 14.6311 10.3031ZM19.3573 7.07648L21.58 9.1526C21.7546 9.31648 21.8971 9.25389 21.8971 9.01424V4.54742C21.8971 4.30695 21.7546 4.24518 21.58 4.40907L19.3573 6.48518C19.1811 6.64824 19.1811 6.9126 19.3573 7.07648ZM8.86882 0.870361C8.39118 0.870361 8 1.23518 8 1.68071V1.82648L14.5973 8.00624C14.7719 8.17013 15.0552 8.17013 15.2298 8.00624L21.8971 1.75318V1.68071C21.8971 1.23518 21.5059 0.870361 21.0282 0.870361H8.86882ZM8 4.54742V9.01424C8 9.25389 8.14247 9.31648 8.31706 9.1526L10.5398 7.07648C10.716 6.9126 10.716 6.64824 10.5398 6.48436L8.31706 4.40907C8.14247 4.24518 8 4.30695 8 4.54742Z" fill="black"/>
</g>
<defs>
<clipPath id="clip0_1_141">
<rect width="14" height="14" fill="white" transform="translate(8 0.046875)"/>
</clipPath>
</defs>
</svg>
