<svg width="29" height="15" viewBox="0 0 29 15" fill="none" xmlns="http://www.w3.org/2000/svg">
<rect y="0.046875" width="29" height="14" fill="#F5F5F5"/>
<g clip-path="url(#clip0_1_131)">
<path d="M22 2.94887C21.4843 3.17676 20.9313 3.33154 20.3503 3.40076C20.943 3.04532 21.3988 2.48221 21.6127 1.81254C21.0589 2.14154 20.4437 2.38032 19.7895 2.50865C19.2653 1.95098 18.5179 1.60254 17.6927 1.60254C16.1068 1.60254 14.8203 2.88743 14.8203 4.47409C14.8203 4.69887 14.8452 4.91821 14.895 5.12898C12.5072 5.00843 10.3909 3.86509 8.97454 2.12832C8.72721 2.55221 8.58565 3.04609 8.58565 3.57109C8.58565 4.56821 9.09276 5.44709 9.86354 5.96198C9.39299 5.94721 8.94965 5.8181 8.56232 5.60343C8.56232 5.6151 8.56232 5.62676 8.56232 5.63921C8.56232 7.03065 9.55243 8.19265 10.8661 8.45554C10.625 8.52087 10.3714 8.55587 10.1093 8.55587C9.92499 8.55587 9.74454 8.53954 9.56954 8.50532C9.93432 9.6471 10.996 10.477 12.2521 10.5003C11.2698 11.2703 10.0315 11.7292 8.68599 11.7292C8.45343 11.7292 8.22554 11.7152 8.00076 11.688C9.27165 12.5039 10.7813 12.9783 12.4038 12.9783C17.6864 12.9783 20.5759 8.60176 20.5759 4.80698C20.5759 4.68176 20.5728 4.55732 20.5665 4.43443C21.1273 4.03154 21.615 3.52521 22 2.94887Z" fill="black"/>
</g>
<defs>
<clipPath id="clip0_1_131">
<rect width="14" height="14" fill="white" transform="translate(8 0.046875)"/>
</clipPath>
</defs>
</svg>
